<svg width="90" height="90" viewBox="0 0 90 90" fill="none" xmlns="http://www.w3.org/2000/svg">
<circle cx="45" cy="45" r="44.5" stroke="#D4D4D4"/>
<path d="M59.107 52.4488C59.9175 52.4254 60.721 52.1068 61.3382 51.4912C62.6213 50.2114 62.6213 48.129 61.3382 46.8493L58.8409 44.3584C62.054 40.421 61.8227 34.6004 58.1469 30.9342C54.4594 27.2563 48.5984 27.0361 44.6503 30.2729C40.7021 27.0361 34.841 27.2563 31.1536 30.9341C27.4778 34.6004 27.2466 40.421 30.4596 44.3584L27.9623 46.8492C26.6792 48.1289 26.6792 50.2113 27.9623 51.4911C28.5796 52.1068 29.383 52.4254 30.1936 52.4487C30.2169 53.2571 30.5364 54.0585 31.1536 54.6741C31.7709 55.2898 32.5744 55.6084 33.3849 55.6317C33.4083 56.4401 33.7277 57.2415 34.3449 57.8572C34.9622 58.4728 35.7656 58.7914 36.5762 58.8147C36.5995 59.6232 36.919 60.4246 37.5362 61.0402C38.8193 62.3199 40.9072 62.3199 42.1903 61.0402L44.6503 58.5866L47.1102 61.0402C48.3933 62.3199 50.4812 62.3199 51.7642 61.0402C52.3815 60.4245 52.701 59.6232 52.7243 58.8147C53.5349 58.7914 54.3384 58.4728 54.9556 57.8572C55.5729 57.2415 55.8923 56.4401 55.9157 55.6317C56.7262 55.6084 57.5296 55.2898 58.1469 54.6741C58.7642 54.0585 59.0836 53.2571 59.107 52.4488ZM53.4929 56.3983C53.0162 56.8737 52.2408 56.8737 51.7642 56.3983L48.5729 53.2153C48.0963 52.7399 48.0963 51.9665 48.5729 51.4912C49.0494 51.0159 49.8246 51.0159 50.3012 51.4909C50.3013 51.491 50.3014 51.4911 50.3015 51.4912L53.4928 54.6743L53.4931 54.6746C53.9695 55.1499 53.9694 55.9231 53.4929 56.3983ZM54.9556 53.2153L51.7643 50.0323C51.7642 50.0322 51.7641 50.0321 51.764 50.032C51.2877 49.5566 51.2878 48.7835 51.7642 48.3082C52.2409 47.8328 53.0163 47.8328 53.4929 48.3082L56.6842 51.4912C57.1608 51.9666 57.1608 52.7401 56.6842 53.2154C56.2077 53.6906 55.4325 53.6907 54.9559 53.2156C54.9558 53.2155 54.9557 53.2154 54.9556 53.2153ZM59.8755 50.0323C59.399 50.5077 58.6235 50.5077 58.1469 50.0323L54.9556 46.8493C54.479 46.3739 54.479 45.6004 54.9556 45.1251C55.4322 44.6498 56.2076 44.6498 56.6842 45.1251L59.8755 48.3081C60.3522 48.7835 60.3522 49.5569 59.8755 50.0323ZM32.6163 32.393C35.7325 29.285 40.8028 29.285 43.919 32.393L48.706 37.1676C49.1826 37.6429 49.1826 38.4164 48.706 38.8917C48.2294 39.3671 47.4539 39.3671 46.9774 38.8917L42.1903 34.1172C41.7864 33.7143 41.1314 33.7143 40.7276 34.1172L31.9322 42.8896C29.5201 39.7661 29.748 35.2539 32.6163 32.393ZM38.999 59.5814C38.5224 59.106 38.5224 58.3325 38.999 57.8572L41.3039 55.5583C41.7078 55.1555 41.7078 54.5023 41.3039 54.0994C40.9 53.6966 40.2451 53.6966 39.8412 54.0994L37.5363 56.3983C37.0597 56.8737 36.2842 56.8737 35.8077 56.3983C35.3311 55.923 35.3311 55.1496 35.8077 54.6742L38.1126 52.3753C38.5164 51.9725 38.5164 51.3193 38.1126 50.9164C37.7087 50.5136 37.0537 50.5136 36.6499 50.9164L34.345 53.2153C33.8683 53.6906 33.0929 53.6906 32.6163 53.2153C32.1398 52.7399 32.1398 51.9665 32.6163 51.4912L34.9212 49.1923C35.3251 48.7895 35.3251 48.1362 34.9212 47.7334C34.5173 47.3306 33.8624 47.3306 33.4585 47.7334L31.1536 50.0323C30.6771 50.5077 29.9016 50.5077 29.425 50.0323C28.9485 49.5569 28.9484 48.7835 29.425 48.3081L32.6163 45.1251L41.4589 36.3055L45.5146 40.3506C46.7977 41.6304 48.8855 41.6304 50.1686 40.3506C51.4517 39.0709 51.4517 36.9885 50.1686 35.7087L46.1602 31.7107C49.2919 29.3048 53.8158 29.5322 56.6842 32.3931C59.597 35.2983 59.7867 39.9062 57.2542 43.0337C56.0283 42.4429 54.5086 42.6531 53.4929 43.6662C52.8756 44.2819 52.5562 45.0832 52.5328 45.8917C51.7223 45.915 50.9188 46.2336 50.3015 46.8493C49.6843 47.4649 49.3648 48.2663 49.3415 49.0747C48.5309 49.098 47.7275 49.4166 47.1102 50.0323C46.4929 50.648 46.1735 51.4493 46.1501 52.2577C45.3396 52.281 44.5361 52.5996 43.9189 53.2153C42.8912 54.2403 42.6875 55.7797 43.306 57.0097L40.7276 59.5813C40.251 60.0567 39.4756 60.0567 38.999 59.5814ZM48.5729 59.5814L45.3816 56.3983C44.905 55.9229 44.905 55.1495 45.3816 54.6742C45.8582 54.1988 46.6337 54.1988 47.1102 54.6742L50.3015 57.8572C50.7782 58.3326 50.7782 59.106 50.3015 59.5814C49.8249 60.0567 49.0495 60.0567 48.5729 59.5814Z" fill="#158F0A"/>
</svg>
