<svg width="90" height="90" viewBox="0 0 90 90" fill="none" xmlns="http://www.w3.org/2000/svg">
<circle cx="45" cy="45" r="44.5" stroke="#D4D4D4"/>
<path d="M69.1515 47.4184L66.1409 29.0725C66.0918 28.773 65.9012 28.5157 65.6291 28.3813C65.357 28.2471 65.0368 28.2523 64.7692 28.3951L57.3036 32.3861C56.8802 32.6125 56.6952 33.1212 56.8742 33.5667L57.3595 34.7739C55.9811 35.3733 54.4054 35.4227 52.989 34.9019C50.3999 33.95 47.547 34.1017 45.0822 35.3062C42.6175 34.1018 39.7646 33.9501 37.1754 34.9019C35.7591 35.4226 34.1833 35.3732 32.8048 34.7738L33.2901 33.5666C33.4692 33.1212 33.2842 32.6124 32.8608 32.3861L25.3952 28.3952C25.1276 28.2522 24.8073 28.2471 24.5353 28.3814C24.2631 28.5157 24.0725 28.7731 24.0234 29.0726L21.0127 47.4184C20.9393 47.866 21.1958 48.3022 21.6226 48.4558L25.7332 49.9346C25.8383 49.9724 25.9457 49.9903 26.0516 49.9903C26.4252 49.9903 26.7773 49.7663 26.9244 49.4004L27.4012 48.2145L29.5854 49.9443C29.6401 50.6667 29.9422 51.3736 30.4934 51.9249C31.0984 52.5298 31.8908 52.8351 32.6853 52.8421C32.6922 53.6366 32.9977 54.429 33.6025 55.034C34.2075 55.6389 34.9999 55.9442 35.7944 55.9512C35.8013 56.7457 36.1068 57.5382 36.7117 58.1431C37.3237 58.7551 38.1276 59.0611 38.9314 59.0611C39.1085 59.0611 39.2855 59.0454 39.4605 59.0156C39.5614 59.6455 39.8534 60.2505 40.3379 60.7351C40.9499 61.3472 41.7538 61.6531 42.5577 61.6531C43.1587 61.6531 43.7597 61.482 44.2806 61.1398L44.507 61.3662C45.119 61.9783 45.9228 62.2842 46.7268 62.2842C47.5306 62.2842 48.3345 61.9783 48.9465 61.3662C49.3288 60.984 49.5916 60.5269 49.7351 60.0416C50.1117 60.1979 50.5192 60.2799 50.9392 60.2799C51.7777 60.2799 52.566 59.9533 53.1589 59.3605C53.652 58.8674 53.946 58.2497 54.0419 57.608C54.2018 57.6326 54.3631 57.6456 54.5246 57.6456C55.3285 57.6456 56.1323 57.3397 56.7443 56.7277C57.3306 56.1414 57.6558 55.3638 57.6631 54.5359C58.4571 54.5283 59.2489 54.2231 59.8535 53.6187C60.7837 52.6884 61.0061 51.3153 60.5225 50.1723L63.0165 48.845L63.2399 49.4006C63.387 49.7665 63.7391 49.9905 64.1128 49.9905C64.2185 49.9905 64.3261 49.9726 64.4311 49.9348L68.5418 48.456C68.9685 48.3023 69.225 47.866 69.1515 47.4184ZM25.5171 47.8574L22.9961 46.9505L25.6671 30.674L31.2298 33.6476L25.5171 47.8574ZM33.6024 50.5947C33.112 51.0848 32.3143 51.0847 31.824 50.5944C31.3336 50.1041 31.3336 49.3062 31.824 48.8158L32.8502 47.7897C33.0877 47.5521 33.4036 47.4213 33.7395 47.4213C34.0754 47.4213 34.3913 47.5521 34.6288 47.7897C35.1192 48.28 35.1192 49.0779 34.6288 49.5683L33.6026 50.5945C33.6025 50.5945 33.6024 50.5946 33.6024 50.5947ZM36.7117 53.7035C36.2213 54.1941 35.4234 54.1941 34.933 53.7035C34.4428 53.2133 34.4427 52.4159 34.9324 51.9255C34.9326 51.9253 34.9329 51.9251 34.9331 51.9249L37.2387 49.6192C37.4762 49.3817 37.7921 49.2507 38.128 49.2507C38.464 49.2507 38.7798 49.3817 39.0174 49.6192C39.5078 50.1096 39.5078 50.9075 39.0174 51.3979L36.7117 53.7035ZM39.8209 56.8127C39.3306 57.303 38.5325 57.3033 38.0422 56.8127C37.5517 56.3223 37.5517 55.5243 38.0422 55.034L40.3478 52.7283C40.5929 52.4832 40.915 52.3605 41.2371 52.3605C41.5592 52.3605 41.8813 52.4832 42.1266 52.7283C42.3642 52.9658 42.495 53.2817 42.495 53.6176C42.495 53.9536 42.3642 54.2695 42.1267 54.507L39.8209 56.8127ZM44.2595 58.5922L43.447 59.4047C42.9566 59.8952 42.1586 59.895 41.6683 59.4047C41.1779 58.9144 41.1779 58.1166 41.6681 57.6261L42.4806 56.8136C42.7258 56.5684 43.0479 56.4458 43.37 56.4458C43.6921 56.4458 44.0142 56.5684 44.2594 56.8136C44.7499 57.3039 44.7499 58.1018 44.2595 58.5922ZM47.6161 60.0357C47.1258 60.5261 46.3278 60.5261 45.8373 60.0357L45.6553 59.8537C46.2062 59.2693 46.5092 58.5095 46.5092 57.7028C46.5092 57.4949 46.4889 57.2902 46.4497 57.0907L47.616 58.2569C48.1066 58.7474 48.1066 59.5453 47.6161 60.0357ZM58.5231 52.2881C58.0327 52.7785 57.2347 52.7785 56.7443 52.2881L50.6637 46.2073C50.2962 45.8402 49.7007 45.8401 49.3332 46.2073C48.9659 46.5747 48.9659 47.1703 49.3332 47.5377L55.414 53.6185C55.6515 53.856 55.7824 54.1719 55.7824 54.5078C55.7824 54.8438 55.6515 55.1596 55.4139 55.3972C54.9235 55.8874 54.1255 55.8876 53.6351 55.3972L49.2342 50.9962C48.8668 50.629 48.2712 50.629 47.9037 50.9962C47.5364 51.3636 47.5364 51.9592 47.9037 52.3266L51.8285 56.2514C52.0661 56.4889 52.197 56.8048 52.197 57.1407C52.197 57.4767 52.0661 57.7925 51.8285 58.0301C51.591 58.2676 51.2751 58.3985 50.9392 58.3985C50.6033 58.3985 50.2874 58.2676 50.0499 58.0301L47.2224 55.2026C46.8551 54.8354 46.2594 54.8354 45.892 55.2026C45.7865 55.3081 45.7124 55.4325 45.6675 55.5649C45.6419 55.5374 45.6164 55.5099 45.5897 55.4832C45.1966 55.0902 44.7174 54.815 44.1949 54.6737C44.314 54.3393 44.3761 53.9833 44.3761 53.6177C44.3761 52.7793 44.0496 51.9909 43.4567 51.398C42.8518 50.793 42.0594 50.4877 41.2649 50.4806C41.2578 49.6861 40.9525 48.8938 40.3476 48.2889C39.7547 47.696 38.9664 47.3695 38.1279 47.3695C37.6311 47.3695 37.1523 47.485 36.721 47.7016C36.5729 47.2472 36.3195 46.8199 35.959 46.4593C35.3661 45.8664 34.5778 45.54 33.7392 45.54C32.9007 45.54 32.1124 45.8665 31.5196 46.4593L30.4934 47.4854C30.3465 47.6324 30.2177 47.7905 30.1061 47.9569L28.133 46.3942L32.1031 36.519C33.9115 37.2905 35.9711 37.3493 37.8244 36.6679C39.4778 36.0601 41.2634 36.0058 42.9246 36.4844L40.5319 37.8079C39.662 38.289 39.0328 39.1199 38.8054 40.0876C38.5781 41.0553 38.7715 42.0795 39.336 42.8977C40.249 44.2209 41.9411 44.7592 43.4512 44.207L48.608 42.3203C49.3757 42.0396 50.245 42.2315 50.8229 42.8094L58.5228 50.5093C59.0135 50.9997 59.0135 51.7977 58.5231 52.2881ZM59.343 48.6685L52.1535 41.4791C51.0598 40.3852 49.4143 40.0222 47.9617 40.5535L42.805 42.4401C42.1004 42.698 41.3109 42.4466 40.8847 41.8291C40.6174 41.4418 40.5295 40.9762 40.6372 40.518C40.7449 40.0599 41.0309 39.682 41.4427 39.4542L45.5373 37.1891C47.623 36.0353 50.1023 35.8453 52.3396 36.6679C54.1928 37.3493 56.2526 37.2904 58.0609 36.519L62.3104 47.0892L59.343 48.6685ZM64.6472 47.8574L58.9344 33.6476L64.4971 30.674L67.1682 46.9505L64.6472 47.8574Z" fill="#158F0A"/>
</svg>
