<svg width="90" height="90" viewBox="0 0 90 90" fill="none" xmlns="http://www.w3.org/2000/svg">
<circle cx="45" cy="45" r="44.5" stroke="#D4D4D4"/>
<path d="M43.6228 27.7559C38.24 27.7559 33.8489 32.1619 33.8489 37.5447C33.8489 40.8352 35.4954 43.7506 38.0012 45.5239C32.1566 47.8658 28.0105 53.5803 28.0105 60.248C28.0194 60.6509 28.1858 61.0343 28.4739 61.3161C28.7621 61.5979 29.1491 61.7559 29.5522 61.7559C29.9552 61.7559 30.3422 61.5979 30.6304 61.3161C30.9185 61.0343 31.0849 60.6509 31.0938 60.248C31.0938 53.1717 36.7994 47.4691 43.8757 47.4691C46.3458 47.4691 48.6387 48.1733 50.5903 49.3812C50.7631 49.4885 50.9554 49.5606 51.1562 49.5935C51.3569 49.6264 51.5622 49.6194 51.7602 49.5729C51.9582 49.5263 52.1451 49.4412 52.3102 49.3223C52.4753 49.2034 52.6153 49.0533 52.7222 48.8803C52.8291 48.7072 52.9009 48.5147 52.9333 48.3139C52.9657 48.1131 52.9582 47.9078 52.9113 47.7099C52.8643 47.5119 52.7787 47.3252 52.6594 47.1604C52.5402 46.9956 52.3896 46.856 52.2163 46.7495C51.3369 46.2052 50.3823 45.7792 49.398 45.4126C51.8228 43.6302 53.4117 40.7695 53.4117 37.5447C53.4117 32.1619 49.0056 27.7559 43.6228 27.7559ZM43.6228 30.8421C47.3392 30.8421 50.3284 33.8283 50.3284 37.5447C50.3284 41.2612 47.3392 44.2353 43.6228 44.2353C39.9063 44.2353 36.9322 41.2612 36.9322 37.5447C36.9322 33.8283 39.9063 30.8421 43.6228 30.8421ZM59.226 49.3451C58.9754 49.3523 58.7304 49.4204 58.5121 49.5437C58.2939 49.667 58.109 49.8417 57.9734 50.0526L52.6589 58.0169L49.3257 55.7856C49.1567 55.672 48.9669 55.5928 48.7672 55.5527C48.5675 55.5125 48.3619 55.5121 48.1621 55.5516C47.9623 55.5911 47.7722 55.6697 47.6028 55.7828C47.4334 55.8958 47.288 56.0412 47.1749 56.2106C47.0618 56.38 46.9832 56.5699 46.9436 56.7697C46.9041 56.9695 46.9044 57.1753 46.9445 57.375C46.9846 57.5746 47.0637 57.7644 47.1773 57.9335C47.2908 58.1025 47.4367 58.2475 47.6064 58.3601L52.2404 61.4434C52.4092 61.5554 52.5984 61.6331 52.7973 61.6719C52.9961 61.7108 53.2006 61.7099 53.3992 61.6696C53.5977 61.6294 53.7864 61.5504 53.9543 61.4372C54.1223 61.324 54.2664 61.1788 54.3782 61.0099L60.5479 51.757C60.7088 51.5219 60.8014 51.2468 60.8155 50.9623C60.8296 50.6778 60.7645 50.3949 60.6276 50.1451C60.4907 49.8953 60.2873 49.6883 60.0398 49.5471C59.7924 49.4059 59.5108 49.3359 59.226 49.3451Z" fill="#158F0A"/>
</svg>
