<svg width="60" height="98" viewBox="0 0 60 98" fill="none" xmlns="http://www.w3.org/2000/svg">
<path opacity="0.2" d="M17.7411 65.0896L18.3002 60.372C18.5983 57.8559 19.1699 55.6911 20.015 53.8777C20.9594 51.9849 22.3424 50.1896 24.164 48.4919C25.9962 46.7044 28.4267 44.8055 31.4555 42.7952C35.1803 40.2296 38.1239 37.7992 40.2863 35.504C42.5375 33.2193 43.8281 30.6842 44.1582 27.8985C44.5842 24.3041 43.6537 21.1412 41.3668 18.4099C39.0906 15.5887 35.7331 13.9151 31.2945 13.3891C26.8559 12.8631 23.1949 13.7505 20.3117 16.0514C17.4391 18.2624 15.7473 21.5246 15.2361 25.8379L0.322282 24.0705C0.929276 18.9485 2.67081 14.5076 5.54688 10.7479C8.52237 6.90887 12.3235 4.07892 16.9502 2.25803C21.6764 0.357797 26.969 -0.245155 32.828 0.449171C38.9533 1.17506 44.0578 2.919 48.1414 5.681C52.2251 8.443 55.1866 11.9377 57.0262 16.1651C58.9651 20.3131 59.6471 24.8134 59.072 29.6659C58.6674 33.0806 57.723 36.1124 56.2388 38.7613C54.7546 41.4102 52.8479 43.8268 50.5186 46.0111C48.2887 48.116 45.7038 50.1789 42.7637 52.1996C40.6084 53.6755 38.8294 55.0138 37.4269 56.2144C36.035 57.3252 34.9538 58.4728 34.1833 59.6572C33.4128 60.8416 32.921 62.3324 32.7081 64.1296L32.3886 66.8255L17.7411 65.0896ZM21.2951 97.7682C19.3421 97.5368 17.5808 96.8269 16.0113 95.6385C14.5199 94.5505 13.3817 93.14 12.5969 91.4067C11.9115 89.5942 11.686 87.6994 11.9202 85.7225C12.293 82.5774 13.6173 80.1374 15.8934 78.4024C18.1801 76.5775 20.8326 75.844 23.8509 76.2017C26.8691 76.5593 29.2767 77.8926 31.0735 80.2013C32.881 82.4202 33.5984 85.1022 33.2257 88.2473C32.9914 90.2243 32.2849 92.0086 31.106 93.6002C30.0266 95.1125 28.6347 96.2232 26.9303 96.9325C25.2153 97.7316 23.3369 98.0102 21.2951 97.7682Z" fill="white"/>
</svg>
