<svg width="115" height="189" viewBox="0 0 115 189" fill="none" xmlns="http://www.w3.org/2000/svg">
<path opacity="0.2" d="M59.6474 130.572L57.6888 121.557C56.6442 116.748 56.3228 112.412 56.7248 108.548C57.2588 104.476 58.6582 100.306 60.9229 96.0372C63.1504 91.597 66.4039 86.5742 70.6836 80.9688C75.8876 73.9037 79.7454 67.5807 82.257 61.9998C84.938 56.382 85.7003 50.9114 84.5437 45.5878C83.0514 38.7187 79.3462 33.4993 73.4279 29.9295C67.4723 26.1881 60.2608 25.2371 51.7936 27.0765C43.3264 28.916 37.1782 32.8592 33.3491 38.9062C29.4827 44.7815 28.4449 51.8406 30.2356 60.0835L1.78573 66.2642C-0.340783 56.4757 0.0427014 47.2209 2.93618 38.4999C5.9617 29.5703 11.1384 21.9717 18.4663 15.7041C25.9263 9.22796 35.2446 4.77584 46.4214 2.34773C58.1061 -0.190744 68.5638 -0.214732 77.7944 2.27577C87.025 4.76628 94.6625 9.31128 100.707 15.9108C106.883 22.3018 110.979 30.1339 112.994 39.4072C114.411 45.9328 114.598 52.0966 113.553 57.8984C112.508 63.7002 110.541 69.3426 107.654 74.8254C104.898 80.0997 101.465 85.5211 97.3549 91.0897C94.3382 95.1619 91.9242 98.7435 90.113 101.834C88.2644 104.754 87.0086 107.544 86.3455 110.206C85.6824 112.868 85.7239 115.916 86.4701 119.35L87.5893 124.502L59.6474 130.572ZM86.8251 188.329C83.0995 189.138 79.4228 188.948 75.7948 187.758C72.3735 186.703 69.3957 184.832 66.8614 182.146C64.4591 179.251 62.8476 175.914 62.0269 172.136C60.7211 166.126 61.6053 160.809 64.6795 156.184C67.7163 151.388 72.1136 148.365 77.8714 147.114C83.6291 145.863 88.8844 146.79 93.6374 149.893C98.3531 152.825 101.364 157.296 102.67 163.307C103.49 167.085 103.324 170.808 102.17 174.475C101.148 177.934 99.2994 180.853 96.6242 183.233C93.9864 185.784 90.72 187.483 86.8251 188.329Z" fill="white"/>
</svg>
