<svg width="91" height="90" viewBox="0 0 91 90" fill="none" xmlns="http://www.w3.org/2000/svg">
<circle cx="45.5" cy="45" r="44.5" stroke="#D4D4D4"/>
<path d="M52 45C52 45.2226 51.9116 45.436 51.7542 45.5934C51.5968 45.7507 51.3834 45.8392 51.1608 45.8392H45.8391V51.1608C45.8391 51.3834 45.7507 51.5968 45.5933 51.7542C45.436 51.9116 45.2225 52 45 52C44.7774 52 44.564 51.9116 44.4066 51.7542C44.2492 51.5968 44.1608 51.3834 44.1608 51.1608V45.8392H38.8392C38.6166 45.8392 38.4032 45.7507 38.2458 45.5934C38.0884 45.436 38 45.2226 38 45C38 44.7774 38.0884 44.564 38.2458 44.4066C38.4032 44.2493 38.6166 44.1608 38.8392 44.1608H44.1608V38.8392C44.1608 38.6166 44.2492 38.4032 44.4066 38.2458C44.564 38.0884 44.7774 38 45 38C45.2225 38 45.436 38.0884 45.5933 38.2458C45.7507 38.4032 45.8391 38.6166 45.8391 38.8392V44.1608H51.1608C51.3834 44.1608 51.5968 44.2493 51.7542 44.4066C51.9116 44.564 52 44.7774 52 45Z" fill="#158F0A"/>
<path fill-rule="evenodd" clip-rule="evenodd" d="M45 60C53.2843 60 60 53.2843 60 45C60 36.7157 53.2843 30 45 30C36.7157 30 30 36.7157 30 45C30 53.2843 36.7157 60 45 60ZM45 62C54.3888 62 62 54.3888 62 45C62 35.6112 54.3888 28 45 28C35.6112 28 28 35.6112 28 45C28 54.3888 35.6112 62 45 62Z" fill="#158F0A"/>
</svg>
