<svg width="90" height="90" viewBox="0 0 90 90" fill="none" xmlns="http://www.w3.org/2000/svg">
<circle cx="45" cy="45" r="44.5" stroke="#D4D4D4"/>
<path d="M45 28C35.6033 28 28 35.6041 28 45C28 54.3967 35.6041 62 45 62C54.3967 62 62 54.3959 62 45C62 35.6033 54.3959 28 45 28ZM45 59.7334C36.8761 59.7334 30.2666 53.124 30.2666 45C30.2666 36.876 36.8761 30.2666 45 30.2666C53.1239 30.2666 59.7334 36.8761 59.7334 45C59.7334 53.1239 53.1239 59.7334 45 59.7334Z" fill="#158F0A"/>
<path d="M52.7332 39.2775C52.3774 38.9075 51.8006 38.9075 51.4449 39.2775L43.3352 47.7126L39.5551 43.781C39.1993 43.4109 38.6225 43.4109 38.2668 43.781C37.9111 44.151 37.9111 44.7509 38.2668 45.1209L42.691 49.7226C43.0467 50.0925 43.6237 50.0924 43.9792 49.7226L52.7332 40.6174C53.0889 40.2474 53.0889 39.6475 52.7332 39.2775Z" fill="#158F0A"/>
</svg>
