<svg width="120" height="41" viewBox="0 0 120 41" fill="none" xmlns="http://www.w3.org/2000/svg">
<path d="M106.247 40.5682C103.553 40.5682 101.064 40.0265 98.7814 38.9432C96.5361 37.8225 94.7398 36.1415 93.3926 33.9002C92.0454 31.6215 91.3718 28.7638 91.3718 25.3271V24.2064C91.3718 20.9191 92.008 18.1922 93.2803 16.0256C94.5901 13.8589 96.3303 12.234 98.5008 11.1507C100.671 10.0673 103.066 9.52568 105.686 9.52568C110.364 9.52568 113.919 10.7584 116.351 13.2239C118.784 15.6894 120 19.2568 120 23.9263V27.0641H98.9498C99.0247 28.8198 99.3989 30.258 100.073 31.3787C100.784 32.462 101.682 33.2652 102.767 33.7881C103.852 34.2738 105.012 34.5166 106.247 34.5166C108.156 34.5166 109.597 34.2364 110.57 33.6761C111.543 33.1157 112.235 32.2939 112.646 31.2106H119.439C118.84 34.3111 117.362 36.6458 115.004 38.2148C112.646 39.7837 109.728 40.5682 106.247 40.5682ZM105.967 15.5773C104.806 15.5773 103.684 15.7641 102.599 16.1376C101.513 16.5112 100.653 17.1836 100.016 18.1548C99.3802 19.0887 99.0247 20.3401 98.9498 21.9091H112.815C112.777 20.2281 112.441 18.9393 111.804 18.0428C111.206 17.1089 110.401 16.4738 109.391 16.1376C108.38 15.7641 107.239 15.5773 105.967 15.5773Z" fill="#1F1F1F"/>
<path d="M73.7524 39.8958V10.1981H80.4885V14.6247C80.9002 13.7655 81.4615 12.9624 82.1725 12.2153C82.8835 11.4682 83.763 10.8331 84.8108 10.3102C85.8586 9.78717 87.0187 9.52568 88.2911 9.52568C89.0021 9.52568 89.6009 9.56304 90.0874 9.63775C90.6113 9.71246 90.9481 9.78717 91.0978 9.86188V16.4178C90.7236 16.2684 90.2371 16.1376 89.6383 16.0256C89.077 15.8761 88.3098 15.8014 87.3368 15.8014C85.8399 15.8014 84.6237 16.1189 83.6881 16.754C82.79 17.389 82.1351 18.2295 81.7234 19.2755C81.3118 20.2841 81.106 21.3861 81.106 22.5815V39.8958H73.7524Z" fill="#1F1F1F"/>
<path d="M23.7702 40.5682C20.3647 40.5682 17.3148 39.8958 14.6204 38.551C11.9634 37.1688 9.8677 35.0209 8.33338 32.1071C6.83647 29.156 6.08803 25.3084 6.08803 20.5643V19.4436C6.08803 16.0069 6.5371 13.0745 7.43524 10.6463C8.33338 8.18088 9.58703 6.16367 11.1962 4.59474C12.8428 3.0258 14.7326 1.86778 16.8657 1.12067C18.9988 0.373556 21.3003 0 23.7702 0C25.9781 0 28.0363 0.280167 29.9449 0.8405C31.8909 1.36348 33.6123 2.16662 35.1092 3.24993C36.6061 4.33325 37.8036 5.73408 38.7018 7.45244C39.6373 9.1708 40.1799 11.188 40.3296 13.504H31.5728C31.1611 11.3001 30.263 9.6751 28.8783 8.62914C27.4937 7.58318 25.791 7.06021 23.7702 7.06021C22.1984 7.06021 20.7389 7.45244 19.3917 8.23691C18.0445 8.98402 16.9406 10.2541 16.0798 12.0472C15.2565 13.8402 14.8449 16.3057 14.8449 19.4436V20.5643C14.8449 23.0297 15.1069 25.103 15.6308 26.784C16.1547 28.4276 16.847 29.7537 17.7077 30.7623C18.5684 31.7336 19.5227 32.4433 20.5705 32.8916C21.6184 33.3025 22.6849 33.508 23.7702 33.508C25.9032 33.508 27.6621 32.9663 29.0467 31.883C30.4314 30.7623 31.2734 29.156 31.5728 27.0641H40.3296C40.1425 29.4922 39.5999 31.5842 38.7018 33.3399C37.8036 35.0582 36.6248 36.4591 35.1653 37.5424C33.7058 38.5883 32.0031 39.3541 30.0571 39.8397C28.1112 40.3254 26.0155 40.5682 23.7702 40.5682Z" fill="#1F1F1F"/>
<path d="M8.36393 6.72671V0.672405H0V39.8958H8.36393V33.9028C8.07978 33.4593 7.81081 32.9965 7.55701 32.5145L7.5539 32.5086L7.55087 32.5026C5.97074 29.3874 5.21094 25.3902 5.21094 20.5643V19.4436C5.21094 15.9362 5.66852 12.8959 6.61169 10.3451C7.09347 9.023 7.67683 7.81561 8.36393 6.72671Z" fill="#1F1F1F"/>
<path d="M8.36393 8.50045C8.0208 9.17342 7.71123 9.88872 7.43524 10.6463C6.5371 13.0745 6.08803 16.0069 6.08803 19.4436V20.5643C6.08803 25.3084 6.83647 29.156 8.33338 32.1071C8.34354 32.1264 8.35372 32.1457 8.36393 32.1649V8.50045Z" fill="#1F1F1F"/>
<path fill-rule="evenodd" clip-rule="evenodd" d="M52.5789 40.5682C50.4458 40.5682 48.6308 40.1759 47.1339 39.3915C45.637 38.5697 44.4956 37.449 43.7098 36.0295C42.9239 34.61 42.531 33.0037 42.531 31.2106C42.531 28.2222 43.4104 25.9808 45.1692 24.4866C46.9655 22.9924 49.6412 22.2453 53.1964 22.2453H62.0655V20.8444C62.0655 18.9019 61.6164 17.5385 60.7183 16.754C59.8576 15.9695 58.4729 15.5773 56.5644 15.5773C54.8804 15.5773 53.6641 15.8761 52.9157 16.4738C52.1672 17.0342 51.7369 17.7439 51.6246 18.6031H44.215C44.3272 16.8847 44.8699 15.3532 45.8428 14.0084C46.8533 12.6262 48.2753 11.5429 50.109 10.7584C51.9801 9.93659 54.2255 9.52568 56.8451 9.52568C59.3898 9.52568 61.5977 9.89924 63.4689 10.6464C65.3774 11.3935 66.8556 12.6075 67.9034 14.2885C68.9512 15.9322 69.4752 18.1548 69.4752 20.9565V32.3313C69.4752 33.9002 69.4939 35.2824 69.5313 36.4777C69.6061 37.6358 69.7184 38.7751 69.8681 39.8958H62.9636C62.814 39.074 62.7204 38.4576 62.683 38.0467V36.0855C61.8971 37.2809 60.6622 38.3268 58.9781 39.2234C57.2941 40.1199 55.1611 40.5682 52.5789 40.5682ZM52.2678 33.422C52.1044 33.2522 51.8182 33.2311 51.6314 33.3727L51.6265 33.3695L51.2038 33.7915C51.1111 33.8837 51.0603 34.0068 51.0603 34.1377C51.0547 34.4012 51.2871 34.6327 51.5509 34.6274C51.7044 34.6299 51.8411 34.5532 51.9412 34.4406L52.2678 34.1146C52.3363 34.0463 52.3822 33.9613 52.4012 33.8687C52.4355 33.7087 52.3849 33.5371 52.2678 33.422ZM50.3982 31.9874C50.5898 31.7966 50.9007 31.7964 51.0921 31.9874C51.2835 32.1785 51.2835 32.4892 51.0921 32.68L50.7219 33.0495C50.2427 33.4898 49.587 32.835 50.0283 32.3569C50.0533 32.3319 50.1323 32.253 50.2115 32.1739L50.2168 32.1686C50.297 32.0886 50.376 32.0096 50.3982 31.9874ZM53.271 34.5389C53.1399 34.5389 53.0166 34.5899 52.9239 34.6824L52.5538 35.0519C52.552 35.0537 52.5503 35.0554 52.5486 35.0574C52.3631 35.2404 52.3658 35.5643 52.5538 35.7446C52.7452 35.9354 53.0565 35.9354 53.2476 35.7446L53.6181 35.3748C53.9249 35.0693 53.7044 34.5372 53.271 34.5389ZM54.1313 28.8312C54.7905 29.4892 55.8061 29.5798 56.5635 29.103L59.1755 31.7104C59.3667 31.9012 59.3667 32.212 59.1755 32.4031C58.9929 32.5928 58.6642 32.5929 58.4817 32.4031L56.5539 30.4788L55.9415 31.0901L57.8689 33.0144C58.3103 33.4925 57.6542 34.1475 57.1753 33.7071L55.2476 31.7828L54.6352 32.3941C54.6352 32.3941 56.5776 34.3331 56.5851 34.3403L56.5842 34.3415C56.9484 34.7744 56.4376 35.3687 55.9548 35.0794L55.945 35.0909C55.6119 34.7063 55.0669 34.5451 54.5806 34.6752C54.4383 34.0993 53.8581 33.6626 53.274 33.6751C53.2455 33.0549 52.7196 32.4929 52.0985 32.4258C52.1744 31.3595 51.0208 30.6285 50.0827 31.1518C48.7945 30.0032 48.7156 27.9865 49.9467 26.766C51.1711 25.5355 53.1938 25.6172 54.3441 26.9058L53.2731 27.9748L54.1313 28.8312ZM59.9665 26.766C58.7927 25.5946 56.8829 25.5946 55.7091 26.766C55.4809 26.9939 54.7139 27.7597 54.4984 27.9748L54.7438 28.2198C55.1706 28.6459 55.8648 28.6459 56.2913 28.2198L56.5976 27.914C56.6562 27.9731 57.0806 28.3965 57.604 28.9186C58.5356 29.848 59.7808 31.0903 59.8346 31.1478C61.1196 29.9987 61.1958 27.9849 59.9665 26.766ZM54.5788 35.6388C54.7701 35.4477 55.0812 35.4479 55.2727 35.6388C55.4628 35.8204 55.4628 36.1494 55.2727 36.3314L54.9025 36.7009C54.7197 36.8905 54.3915 36.8907 54.2086 36.7009C54.0182 36.5186 54.0181 36.1906 54.2086 36.0083L54.5788 35.6388Z" fill="#1F1F1F"/>
</svg>
