<svg width="91" height="90" viewBox="0 0 91 90" fill="none" xmlns="http://www.w3.org/2000/svg">
<circle cx="45.5" cy="45" r="44.5" stroke="#D4D4D4"/>
<path d="M52.4094 45.0604C51.756 44.7498 51.0894 44.4822 50.411 44.2581C52.608 42.6091 54.0317 39.9833 54.0317 37.0312C54.0317 32.0514 49.9803 28 45.0005 28C40.0206 28 35.9692 32.0514 35.9692 37.0312C35.9692 39.9866 37.3962 42.615 39.5972 44.2636C37.5806 44.9276 35.6883 45.9606 34.0321 47.3229C30.9953 49.8209 28.8837 53.3052 28.0867 57.1339C27.8368 58.3336 28.1361 59.5659 28.9076 60.5146C29.6754 61.4586 30.8138 62 32.0309 62H48.3872C49.1207 62 49.7153 61.4054 49.7153 60.6719C49.7153 59.9384 49.1207 59.3438 48.3872 59.3438H32.0309C31.4639 59.3438 31.1218 59.0273 30.9684 58.8387C30.7035 58.5129 30.601 58.0889 30.6871 57.6753C32.0654 51.0549 37.9049 46.2188 44.6484 46.0557C44.7652 46.0602 44.8825 46.0625 45.0005 46.0625C45.1195 46.0625 45.2381 46.0602 45.356 46.0556C47.4226 46.1041 49.4101 46.5757 51.2691 47.4594C51.9316 47.7742 52.7238 47.4926 53.0387 46.83C53.3536 46.1676 53.0719 45.3753 52.4094 45.0604ZM45.3244 43.3981C45.2166 43.3962 45.1086 43.3952 45.0005 43.3952C44.8933 43.3952 44.7861 43.3962 44.6791 43.3982C41.3126 43.2303 38.6255 40.4387 38.6255 37.0312C38.6255 33.516 41.4852 30.6562 45.0005 30.6562C48.5157 30.6562 51.3755 33.516 51.3755 37.0312C51.3755 40.4378 48.6897 43.2289 45.3244 43.3981Z" fill="#158F0A"/>
<path d="M60.6723 54.3633H57.02V50.7109C57.02 49.9774 56.4254 49.3828 55.6919 49.3828C54.9583 49.3828 54.3637 49.9774 54.3637 50.7109V54.3633H50.7114C49.9779 54.3633 49.3833 54.9579 49.3833 55.6914C49.3833 56.4249 49.9779 57.0195 50.7114 57.0195H54.3637V60.6719C54.3637 61.4054 54.9583 62 55.6919 62C56.4254 62 57.02 61.4054 57.02 60.6719V57.0195H60.6723C61.4059 57.0195 62.0005 56.4249 62.0005 55.6914C62.0005 54.9579 61.4059 54.3633 60.6723 54.3633Z" fill="#158F0A"/>
</svg>
