<svg width="90" height="90" viewBox="0 0 90 90" fill="none" xmlns="http://www.w3.org/2000/svg">
<circle cx="45" cy="45" r="44.5" stroke="#D4D4D4"/>
<path d="M56.5131 27.6692H49.9977C48.478 27.6692 47.2417 28.9054 47.2417 30.4248V36.9406C47.2417 38.46 48.478 39.6962 49.9977 39.6962H56.5131C58.0325 39.6962 59.2688 38.46 59.2688 36.9406V30.4248C59.269 28.9054 58.0328 27.6692 56.5131 27.6692ZM57.1597 36.9406C57.1597 37.2968 56.8696 37.5868 56.5131 37.5868H49.9977C49.6412 37.5868 49.3514 37.2968 49.3514 36.9406V30.4248C49.3514 30.0686 49.6412 29.7786 49.9977 29.7786H56.5131C56.8696 29.7786 57.1597 30.0686 57.1597 30.4248V36.9406Z" fill="#158F0A"/>
<path d="M51.466 42.3293C50.9598 42.3293 50.4827 42.4549 50.0639 42.6765C49.5242 41.8679 48.6038 41.3345 47.5609 41.3345C47.0223 41.3345 46.5164 41.4768 46.0786 41.7259C45.5306 40.9819 44.6487 40.4982 43.6558 40.4982C43.3432 40.4982 43.0417 40.546 42.758 40.635V39.6962H43.0084C44.5281 39.6962 45.7644 38.46 45.7644 36.9403V30.4248C45.7644 28.9054 44.5281 27.6692 43.0084 27.6692H36.493C34.9736 27.6692 33.7374 28.9054 33.7374 30.4248V36.9406C33.7374 38.46 34.9736 39.6962 36.493 39.6962H36.7438V46.2298C36.5806 46.0663 36.3974 45.9205 36.1964 45.7955C35.5484 45.3932 34.7887 45.2531 34.0439 45.3965C33.2427 45.4286 32.5239 45.7782 32.057 46.3668C31.5665 46.9851 31.3962 47.814 31.5893 48.6413L32.9755 54.5731C33.7659 59.5221 37.6265 63.2248 37.791 63.3805C37.9869 63.5659 38.2464 63.6692 38.5161 63.6692H50.3786C50.7338 63.6692 51.0647 63.4904 51.26 63.1938C53.3609 59.9978 54.4718 56.2872 54.4721 52.4629L54.4732 45.3366C54.4732 45.3366 54.4732 45.3366 54.4732 45.3363C54.4732 43.6782 53.1241 42.3293 51.466 42.3293ZM38.9592 61.5598C38.1091 60.6556 35.6042 57.736 35.053 54.2078C35.0488 54.1817 35.0439 54.1559 35.0379 54.1306L33.6431 48.1614C33.5967 47.962 33.6201 47.7901 33.7093 47.6778C33.7983 47.5654 33.951 47.5067 34.1548 47.4872C34.2573 47.4775 34.2999 47.4655 34.3949 47.4597C34.6341 47.4451 34.8794 47.4608 35.0832 47.5874C35.287 47.714 35.429 47.9123 35.4836 48.1458L36.6866 53.2945C36.7872 53.7244 37.1448 54.0463 37.5826 54.1012L37.6672 54.1116C37.9674 54.1493 38.2692 54.0562 38.4961 53.8559C38.7229 53.6557 38.8529 53.3676 38.8529 53.0652V36.3031C38.8529 35.8079 39.2555 35.4052 39.7507 35.4052C40.2457 35.4052 40.6486 35.8079 40.6486 36.3031V46.1932C40.6486 46.7755 41.1207 47.2479 41.7033 47.2479C42.2858 47.2479 42.758 46.7755 42.758 46.1932V43.5054C42.758 43.0102 43.1606 42.6076 43.6558 42.6076C44.1507 42.6076 44.5537 43.0102 44.5537 43.5054V46.3133C44.5537 46.8958 45.0258 47.368 45.6084 47.368C46.1909 47.368 46.663 46.8958 46.663 46.3133V44.3418C46.663 43.8468 47.066 43.4439 47.5609 43.4439C48.0561 43.4439 48.4588 43.8468 48.4588 44.3418V47.0499C48.4588 47.6322 48.9309 48.1046 49.5134 48.1046C50.096 48.1046 50.5681 47.6322 50.5681 47.0499V45.3366C50.5681 44.8414 50.9711 44.4384 51.466 44.4384C51.9612 44.4384 52.3638 44.8414 52.3638 45.3363L52.3627 52.4626C52.3625 55.6863 51.4775 58.8193 49.7988 61.5598H38.9592ZM35.8467 36.9406V30.4248C35.8467 30.0686 36.1368 29.7786 36.493 29.7786H43.0084C43.3649 29.7786 43.655 30.0686 43.655 30.4248V36.9406C43.655 37.2968 43.3649 37.5868 43.0084 37.5868H42.758V36.3028C42.758 34.6447 41.4088 33.2956 39.7507 33.2956C38.0926 33.2956 36.7435 34.6447 36.7435 36.3028V37.5868H36.493C36.1368 37.5868 35.8467 37.2968 35.8467 36.9406Z" fill="#158F0A"/>
</svg>
