<svg width="293" height="293" viewBox="0 0 293 293" fill="none" xmlns="http://www.w3.org/2000/svg">
<path d="M211.737 28.6132H187.31C185.328 25.1951 181.629 22.8911 177.401 22.8911H142.492C139.833 9.84695 128.27 0 114.453 0C100.635 0 89.0721 9.84695 86.414 22.8911H51.5037C47.2764 22.8911 43.5767 25.1951 41.5949 28.6132H17.1679C7.70151 28.6132 0 36.3148 0 45.7812V275.833C0 285.298 7.70151 293 17.1679 293H211.737C221.204 293 228.905 285.298 228.905 275.833V45.7812C228.905 36.3148 221.204 28.6132 211.737 28.6132ZM91.5615 34.3364C94.7215 34.3364 97.2841 31.7738 97.2841 28.6138C97.2841 19.1468 104.986 11.4453 114.453 11.4453C123.92 11.4453 131.622 19.1468 131.622 28.6138C131.622 31.7738 134.184 34.3364 137.344 34.3364H177.401V57.2264H51.5037L51.5025 34.3364H91.5615ZM217.46 275.833C217.46 278.988 214.893 281.555 211.737 281.555H17.1679C14.0124 281.555 11.4453 278.988 11.4453 275.833V45.7812C11.4453 42.6257 14.0124 40.0585 17.1679 40.0585H40.0584V51.5038H28.6137C25.4537 51.5038 22.8911 54.0664 22.8911 57.2264V264.387C22.8911 267.547 25.4537 270.109 28.6137 270.109H88.699C91.8591 270.109 94.4217 267.547 94.4217 264.387C94.4217 261.227 91.8591 258.664 88.699 258.664H34.3363V62.9491H41.5944C43.5761 66.3678 47.2758 68.6717 51.5037 68.6717H177.401C181.629 68.6717 185.329 66.3678 187.311 62.9491H194.569V258.664H140.203C137.043 258.664 134.48 261.227 134.48 264.387C134.48 267.547 137.043 270.109 140.203 270.109H200.292C203.452 270.109 206.015 267.547 206.015 264.387V57.2264C206.015 54.0664 203.452 51.5038 200.292 51.5038H188.847V40.0585H211.737C214.893 40.0585 217.46 42.6257 217.46 45.7812V275.833Z" fill="#D6D6D6"/>
<path d="M114.455 34.3365C117.615 34.3365 120.178 31.7739 120.178 28.6138C120.178 25.4538 117.615 22.8912 114.455 22.8912H114.45C111.29 22.8912 108.73 25.4538 108.73 28.6138C108.73 31.7739 111.294 34.3365 114.455 34.3365Z" fill="#D6D6D6"/>
<path d="M268.932 62.2979C267.963 60.359 265.982 59.1349 263.814 59.1349H246.646C243.486 59.1349 240.923 61.6976 240.923 64.8576C240.923 68.0177 243.486 70.5803 246.646 70.5803H252.369L242.068 84.3147C240.768 86.0487 240.558 88.3686 241.528 90.308C242.497 92.2469 244.478 93.4709 246.646 93.4709H263.814C266.974 93.4709 269.537 90.9083 269.537 87.7483C269.537 84.5882 266.974 82.0256 263.814 82.0256H258.091L268.392 68.2912C269.692 66.5567 269.902 64.2373 268.932 62.2979Z" fill="#D6D6D6"/>
<path d="M287.277 30.5207H275.832L291.855 9.15627C293.156 7.4223 293.366 5.10233 292.396 3.16292C291.426 1.22408 289.445 0 287.277 0H264.387C261.227 0 258.664 2.56261 258.664 5.72267C258.664 8.88272 261.227 11.4453 264.387 11.4453H275.832L259.809 32.8098C258.508 34.5437 258.298 36.8637 259.268 38.8025C260.238 40.742 262.219 41.966 264.387 41.966H287.277C290.437 41.966 293 39.4034 293 36.2434C293 33.0833 290.437 30.5207 287.277 30.5207Z" fill="#D6D6D6"/>
<path d="M86.3105 137.518C84.1679 139.661 81.3192 140.841 78.2891 140.841C75.2595 140.841 72.4113 139.661 70.2682 137.518C68.0329 135.284 64.4105 135.284 62.1747 137.518C59.94 139.753 59.94 143.376 62.1747 145.612C66.4792 149.916 72.2019 152.287 78.2885 152.287C84.3757 152.287 90.0983 149.916 94.4029 145.612C96.6376 143.377 96.6376 139.753 94.4029 137.518C92.1688 135.284 88.5458 135.284 86.3105 137.518Z" fill="#D6D6D6"/>
<path d="M150.616 152.287C156.703 152.287 162.426 149.916 166.731 145.612C168.965 143.377 168.965 139.753 166.731 137.518C164.495 135.284 160.873 135.284 158.637 137.518C156.495 139.661 153.646 140.841 150.616 140.841C147.586 140.841 144.737 139.661 142.594 137.518C140.359 135.284 136.737 135.284 134.501 137.518C132.266 139.753 132.266 143.376 134.501 145.612C138.807 149.916 144.53 152.287 150.616 152.287Z" fill="#D6D6D6"/>
<path d="M122.536 174.325H106.37C103.21 174.325 100.647 176.888 100.647 180.048C100.647 183.208 103.21 185.771 106.37 185.771H122.536C125.696 185.771 128.259 183.208 128.259 180.048C128.259 176.888 125.696 174.325 122.536 174.325Z" fill="#D6D6D6"/>
<path d="M114.453 258.664H114.449C111.289 258.664 108.728 261.227 108.728 264.387C108.728 267.547 111.293 270.109 114.453 270.109C117.614 270.109 120.176 267.547 120.176 264.387C120.176 261.227 117.613 258.664 114.453 258.664Z" fill="#D6D6D6"/>
</svg>
